# xmcd
#
# Track frame offsets: 
#        150
#        16156
#        33563
#        53807
#        75563
#        94341
#        113962
#        131508
#        153113
#        168484
#        187027
#        205603
#        224129
#
# Disc length: 3165 seconds
#
# Revision: 0
# Processed by: cddbd v1.5.2PL0 Copyright (c) Steve Scherf et al.
# Submitted via: ExactAudioCopy v0.99pb5
#
DISCID=af0c5b0d
DTITLE=Teresa James and the Rhythm Tramps - The Bottom Line
DYEAR=2007
DGENRE=Blues
TTITLE0=All Time Low
TTITLE1=Put the Squeeze on Me
TTITLE2=If Momma Don't Dig It 
TTITLE3=Whet My Appetite
TTITLE4=Don't Make a Habit of It 
TTITLE5=I Know Handsome When I See It
TTITLE6=Eieio
TTITLE7=The Bottom Line
TTITLE8=Next Big Thang
TTITLE9=How Am I Gonna Stop Loving You
TTITLE10=In the Pink 
TTITLE11=I Call Your Bluff
TTITLE12=I Do My Drinkin' on the Weekend 
EXTD=
EXTT0=
EXTT1=
EXTT2=
EXTT3=
EXTT4=
EXTT5=
EXTT6=
EXTT7=
EXTT8=
EXTT9=
EXTT10=
EXTT11=
EXTT12=
PLAYORDER=
